

Hongkong / Verenigde Staten / Japan
Animatie / Science-Fiction
94 minuten
 
http://www.imdb.com/title/tt0375568/
 
http://www.moviemeter.nl/film/51079

Geregisseerd door David Bowers

Nederlands gesproken.

De film speelt zich af in de futuristische stad Metro City, waar Astro Boy (Freddie Highmore) is ontworpen door een briljante wetenschapper, die de robot met superkrachten ontwierp na het overlijden van zijn zoon. Astro Boy is dan ook naar zijn gelijkenis ontworpen. Echter, omdat de robot niet kan voorkomen dat zijn geestelijk vader het verdriet van zijn overleden zoon vergeet, loopt Astro Boy weg. Na een gevaarlijke tocht zal hij toch moeten terugkeren om de wereld, die wordt aangevallen door ruimtewezens, te behoeden van de ondergang.

Hoesjes bijgevoegd.

General
Complete name                    : Astro Boy-AC3-XviD-DVDRip 2009 Ned 2Lions-Team\Astro Boy-AC3-XviD-DVDRip 2009 Ned.avi
Format                           : AVI
Format/Info                      : Audio Video Interleave
File size                        : 1.36 GiB
Duration                         : 1h 29mn
Overall bit rate                 : 2 168 Kbps
Writing application              : VirtualDubMod 1.5.4.1 (build 2178/release)
Writing library                  : VirtualDubMod build 2178/release

Video
ID                               : 0
Format                           : MPEG-4 Visual
Format profile                   : Simple@L3
Format settings, BVOP            : No
Format settings, QPel            : No
Format settings, GMC             : No warppoints
Format settings, Matrix          : Default (H.263)
Codec ID                         : XVID
Codec ID/Hint                    : XviD
Duration                         : 1h 29mn
Bit rate                         : 1 710 Kbps
Width                            : 720 pixels
Height                           : 304 pixels
Display aspect ratio             : 2.35:1
Frame rate                       : 25.000 fps
Resolution                       : 8 bits
Colorimetry                      : 4:2:0
Scan type                        : Progressive
Bits/(Pixel*Frame)               : 0.312
Stream size                      : 1.07 GiB (79%)
Writing library                  : XviD 1.1.2 (UTC 2006-11-01)

Audio
ID                               : 1
Format                           : AC-3
Format/Info                      : Audio Coding 3
Format_Settings_ModeExtension    : CM (complete main)
Codec ID                         : 2000
Duration                         : 1h 29mn
Bit rate mode                    : Constant
Bit rate                         : 448 Kbps
Channel(s)                       : 6 channels
Channel positions                : Front: L C R, Side: L R, LFE
Sampling rate                    : 48.0 KHz
Stream size                      : 288 MiB (21%)
Alignment                        : Split accross interleaves
Interleave, duration             : 40 ms (1.00 video frame)
Interleave, preload duration     : 500 ms

Brought to you by 
2Lions Team

meer zien??
Kom dan eens kijken op ons forum 
                   


2Lions-Team and Film-Terminal for all your Dutch MOVIES and more

******************************************

DON T HIT AND RUN Niet gelijk afhaken als de FILM binnen is blijf seeden. 

Don`t quit after you finished the download, but keep seeding

There are fake torrents from uploaders who use our team name.
Those are not ours, or members from our team.
We 2Lions-Team and Film-Terminal are not responsible for the fake posts on our name

Wij 2Lions-Team en Film-Terminal zijn niet verantwoordelijk voor die zieke FAKE posten die op onze naam worden gedaan

Please check our site !!!

to the fakers , get a life !!!

